<?xml version="1.0" encoding="utf-8"?>
<!-- Generator: Adobe Illustrator 16.0.4, SVG Export Plug-In . SVG Version: 6.00 Build 0)  -->
<!DOCTYPE svg PUBLIC "-//W3C//DTD SVG 1.1//EN" "http://www.w3.org/Graphics/SVG/1.1/DTD/svg11.dtd">
<svg version="1.1" id="Layer_1" xmlns="http://www.w3.org/2000/svg" xmlns:xlink="http://www.w3.org/1999/xlink" x="0px" y="0px"
	 width="202px" height="94px" viewBox="0 0 202 94" enable-background="new 0 0 202 94" xml:space="preserve">
<g id="HXijOL_1_">
	<g>
		<path fill-rule="evenodd" clip-rule="evenodd" fill="#FFFFFF" d="M109.848,2.324c0.368,0.306,0.736,0.614,1.111,0.914
			c0.058,0.046,0.178,0.095,0.221,0.067c0.607-0.396,1.249,0.174,1.884-0.083c0.261-0.106,0.701-0.047,0.938,0.115
			c0.703,0.479,1.367,0.041,2.045,0.028c0.111-0.002,0.225,0.033,0.334,0.064c1.007,0.289,2.031,0.533,3.013,0.892
			c0.49,0.179,0.912,0.501,1.472,0.295c0.049-0.019,0.162,0.045,0.202,0.103c0.854,1.216,2.353,1.591,3.365,2.578
			c0.643,0.628,1.082,1.428,1.375,2.327c0.344,1.065,0.146,2.051-0.046,3.092c-0.146,0.796-0.061,1.633-0.088,2.452
			c-0.038,1.147-0.139,2.295-0.117,3.441c0.024,1.352,0.204,2.701,0.219,4.052c0.018,1.6,0.017,3.209-0.142,4.798
			c-0.102,1.025-0.477,2.027-0.772,3.027c-0.231,0.782-0.509,1.553-0.807,2.313c-0.47,1.203-0.983,2.388-1.453,3.59
			c-0.138,0.351-0.167,0.743-0.277,1.106c-0.086,0.281-0.227,0.545-0.331,0.821c-0.043,0.114-0.063,0.238-0.08,0.36
			c-0.081,0.636-0.048,1.313-0.267,1.897c-0.257,0.683-0.672,1.329-1.129,1.904c-0.469,0.589-1.099,1.047-1.598,1.616
			c-0.176,0.2-0.293,0.589-0.227,0.838c0.286,1.093,0.675,2.159,0.977,3.249c0.263,0.947,0.452,1.914,0.679,2.87
			c0.172,0.715,0.378,1.424,0.527,2.145c0.293,1.41,0.55,2.828,0.841,4.24c0.098,0.47,0.176,0.969,0.396,1.383
			c0.356,0.674,0.32,1.37,0.352,2.081c0.021,0.415,0.08,0.862,0.258,1.229c0.58,1.199,0.685,2.508,0.92,3.781
			c0.127,0.684,0.045,1.406,0.071,2.11c0.012,0.278,0.08,0.555,0.097,0.833c0.088,1.369,0.175,2.738,0.245,4.109
			c0.024,0.469-0.021,0.94,0.01,1.408c0.064,1.014,0.173,2.026,0.235,3.041c0.062,0.987,0.041,1.982,0.147,2.965
			c0.065,0.59-0.271,1.146,0.075,1.784c0.312,0.576,0.327,1.314,0.47,1.981c0.103,0.473,0.24,0.941,0.281,1.42
			c0.019,0.208-0.148,0.445-0.269,0.646c-0.13,0.223-0.346,0.4-0.447,0.631c-0.3,0.68-0.91,0.771-1.389,0.201
			c-0.123-0.146-0.318-0.231-0.529-0.381c-0.376,0.795-1.102,0.739-1.759,0.787c-0.176,0.014-0.437-0.158-0.539-0.32
			c-0.205-0.326-0.372-0.692-0.471-1.064c-0.094-0.354-0.134-0.639,0.167-1.067c0.487-0.692,0.681-1.608,0.477-2.523
			c-0.034-0.159,0.04-0.347,0.073-0.519c0.231-1.163,0.355-2.321-0.087-3.471c-0.056-0.146-0.024-0.326-0.024-0.49
			c-0.002-1.076,0.09-2.163-0.029-3.227c-0.096-0.863-0.099-1.716-0.088-2.574c0.007-0.756,0.14-1.516,0.098-2.269
			c-0.045-0.835-0.223-1.661-0.35-2.491c-0.021-0.137-0.135-0.287-0.102-0.402c0.414-1.473-0.11-2.844-0.419-4.244
			c-0.135-0.608-0.148-1.242-0.222-1.865c-0.187-1.58-0.394-3.148-0.877-4.68c-0.276-0.873-0.259-1.836-0.499-2.727
			c-0.383-1.418-0.682-2.865-1.356-4.2c-0.329-0.646-0.452-1.392-0.742-2.06c-0.227-0.527-0.537-1.027-0.873-1.494
			c-0.237-0.329-0.533-0.55-1.026-0.245c-0.305,0.189-0.762,0.211-1.144,0.187c-1.059-0.067-1.449,0.317-1.315,1.382
			c0.009,0.072-0.006,0.15-0.02,0.225c-0.14,0.787-0.354,1.57-0.406,2.365c-0.1,1.465-0.077,2.938-0.158,4.404
			c-0.034,0.594-0.204,1.182-0.312,1.773c-0.019,0.1-0.031,0.2-0.046,0.301c-0.081,0.551-0.176,1.1-0.241,1.652
			c-0.03,0.254,0.006,0.516-0.01,0.771c-0.035,0.633-0.054,1.268-0.131,1.896c-0.09,0.719-0.234,1.432-0.358,2.148
			c-0.17,0.969-0.281,1.953-0.535,2.9c-0.136,0.505,0.153,1.148-0.438,1.524c-0.029,0.019-0.024,0.124-0.005,0.178
			c0.42,1.134,0.098,2.265,0.005,3.398c-0.033,0.411,0.048,0.839-0.03,1.239c-0.159,0.812-0.118,1.627-0.102,2.439
			c0.023,1.17-0.042,2.322-0.228,3.483c-0.136,0.851-0.01,1.741-0.037,2.612c-0.012,0.374,0.19,0.814-0.308,1.098
			c-0.104,0.06-0.074,0.429-0.044,0.646c0.18,1.299-0.296,2.441-0.907,3.514c-0.501,0.876-2.236,0.764-2.704-0.156
			c-0.132-0.259-0.116-0.732,0.04-0.975c0.531-0.834,0.562-1.703,0.411-2.625c-0.022-0.143,0.017-0.305,0.058-0.447
			c0.078-0.285,0.22-0.557,0.264-0.846c0.138-0.896,0.271-1.797,0.35-2.701c0.111-1.301,0.14-2.607,0.265-3.906
			c0.118-1.225,0.383-2.436,0.458-3.66c0.048-0.785-0.168-1.583-0.198-2.378c-0.022-0.566,0.074-1.137,0.103-1.706
			c0.028-0.588,0.031-1.178,0.057-1.765c0.026-0.645-0.068-1.334,0.13-1.923c0.31-0.922-0.019-1.799,0.042-2.691
			c0.03-0.434,0.015-0.871,0.016-1.307c0.002-0.868-0.038-1.738,0.011-2.604c0.055-0.949,0.205-1.895,0.281-2.844
			c0.022-0.288-0.203-0.677-0.079-0.863c0.55-0.826,0.261-1.752,0.381-2.619c0.21-1.529,0.35-3.08,0.354-4.622
			c0.002-1.544,0.298-3.031,0.521-4.539c0.103-0.688,0.102-1.391,0.138-2.088c0.046-0.918,0.088-1.837,0.124-2.756
			c0.034-0.88,0.063-1.761,0.087-2.641c0.027-1.174,0.014-2.351,0.081-3.522c0.067-1.155,0.235-2.305,0.315-3.46
			c0.048-0.682-0.015-1.37,0.018-2.054c0.065-1.344,0.166-2.687,0.244-4.031c0.058-0.996,0.063-1.998,0.164-2.989
			c0.11-1.089,0.362-2.166,0.443-3.256c0.069-0.923-0.021-1.858-0.031-2.788c-0.007-0.647-0.009-1.295,0.005-1.942
			c0.012-0.555,0.061-1.048-0.429-1.531c-0.387-0.381-0.507-1.026-0.773-1.541c-0.34-0.658-0.211-1.167,0.41-1.567
			c0.094-0.059,0.216-0.244,0.19-0.286c-0.353-0.565,0.441-0.874,0.307-1.396c-0.018-0.069,0.214-0.203,0.329-0.307
			C109.683,2.324,109.765,2.324,109.848,2.324z M111.76,43.244c0.941-0.691,1.839-1.349,2.732-2.009
			c0.082-0.061,0.174-0.131,0.215-0.22c0.365-0.791,1.145-1.065,1.797-1.519c0.52-0.363,0.963-0.859,1.37-1.353
			c0.28-0.34,0.347-0.996,0.671-1.133c1.061-0.452,1.291-1.431,1.673-2.302c0.469-1.072,0.906-2.169,1.227-3.292
			c0.334-1.169,0.54-2.378,0.752-3.58c0.166-0.933,0.261-1.88,0.38-2.822c0.129-1.021,0.277-2.04,0.357-3.065
			c0.04-0.503-0.06-1.018-0.084-1.527c-0.054-1.158-0.008-2.328-0.173-3.47c-0.187-1.3-0.513-2.587-0.861-3.856
			c-0.343-1.253-0.9-2.427-1.666-3.485c-0.287-0.398-0.581-0.837-0.975-1.106c-1.187-0.81-2.567-1.203-3.893-1.729
			c-1.001-0.398-2.052,0.4-1.86,1.404c0.025,0.134,0.029,0.321-0.045,0.416c-0.622,0.797-0.241,1.735-0.159,2.516
			c0.105,0.991-0.277,1.889-0.168,2.847c0.073,0.652-0.022,1.322,0.012,1.981c0.027,0.516,0.231,1.036,0.193,1.542
			c-0.062,0.834-0.262,1.657-0.389,2.488c-0.072,0.469-0.157,0.942-0.155,1.414c0.003,1.064,0.093,2.128,0.08,3.192
			c-0.007,0.599-0.144,1.195-0.226,1.792c-0.082,0.599,0.319,1.254-0.229,1.81c-0.081,0.082-0.009,0.318-0.008,0.482
			c0.003,0.271,0.019,0.543,0.007,0.814c-0.041,0.964-0.303,1.925-0.013,2.894c0.04,0.134,0.053,0.311,0.001,0.434
			c-0.185,0.431-0.134,0.835-0.104,1.301c0.094,1.484,0.049,2.982-0.045,4.469c-0.057,0.901-0.322,1.787-0.459,2.685
			c-0.081,0.54-0.104,1.09-0.126,1.636C111.584,43.005,111.698,43.123,111.76,43.244z"/>
		<path fill-rule="evenodd" clip-rule="evenodd" fill="#FFFFFF" d="M5.179,10.109C5.219,9.985,5.32,9.845,5.292,9.738
			C5.096,8.963,5.609,8.622,6.159,8.341c0.526-0.268,1.025-0.52,1.689-0.143C8.22,8.409,8.806,8.23,9.294,8.245
			c0.819,0.024,1.639,0.056,2.458,0.096c0.481,0.024,0.878,0.245,1.28,0.511c0.263,0.175,0.641,0.165,0.95,0.284
			c0.716,0.278,1.441,0.545,2.124,0.894c0.321,0.164,0.508,0.602,0.832,0.752c0.997,0.461,1.845,1.034,2.252,2.116
			c0.051,0.135,0.282,0.209,0.438,0.297c1.131,0.643,1.671,1.644,1.875,2.905c0.217,1.347,0.535,2.677,0.78,4.019
			c0.073,0.4,0.02,0.823,0.081,1.226c0.072,0.468,0.241,0.921,0.302,1.389c0.055,0.422,0.002,0.858,0.032,1.287
			c0.072,1.066,0.167,2.131,0.246,3.198c0.019,0.254,0.045,0.516,0.007,0.764c-0.04,0.25-0.239,0.506,0.165,0.633
			c0.03,0.009,0.076,0.08,0.067,0.096c-0.478,0.881,0.242,1.71,0.096,2.608c-0.145,0.886-0.027,1.814-0.034,2.724
			c-0.001,0.104-0.049,0.218-0.104,0.309c-0.298,0.493-0.301,0.491,0.053,0.931c-0.338,0.397-0.413,0.821-0.242,1.344
			c0.119,0.363-0.047,0.631-0.417,0.93c-0.342,0.276-0.365,0.937-0.552,1.418c-0.245,0.629-0.508,1.25-0.772,1.87
			c-0.085,0.2-0.217,0.379-0.302,0.579c-0.347,0.804-0.605,1.659-1.053,2.4c-0.278,0.459-0.922,0.697-0.74,1.414
			c0.013,0.052-0.201,0.161-0.475,0.37c0.961,0.531,1.834,1.014,2.709,1.496c0.07,0.039,0.163,0.057,0.213,0.111
			c0.712,0.787,1.656,1.396,1.915,2.531c0.024,0.107,0.109,0.222,0.197,0.295c0.838,0.701,1.066,1.746,1.527,2.66
			c0.144,0.285,0.347,0.546,0.468,0.84c0.098,0.236,0.126,0.505,0.163,0.762c0.04,0.277,0.059,0.559,0.079,0.838
			c0.017,0.247,0.051,0.498,0.024,0.743c-0.063,0.583-0.18,1.161-0.232,1.746c-0.024,0.274,0.067,0.558,0.08,0.837
			c0.024,0.51-0.01,1.026,0.054,1.531c0.058,0.45,0.201,0.894,0.334,1.332c0.203,0.668,0.279,1.332,0.324,2.039
			c0.066,1.047,0.483,2.07,0.742,3.105c0.147,0.584,0.299,1.17,0.409,1.764c0.056,0.301,0.038,0.621,0.021,0.93
			c-0.012,0.23-0.085,0.456-0.116,0.686c-0.021,0.158-0.083,0.368-0.009,0.47c0.227,0.315,0.14,0.559-0.031,0.856
			c-0.124,0.217-0.238,0.506-0.198,0.735c0.211,1.217-0.27,2.349-0.425,3.513c-0.095,0.719-0.543,1.386-0.792,2.09
			c-0.265,0.749-0.472,1.518-0.722,2.272c-0.178,0.537-0.322,1.103-0.599,1.587c-0.356,0.624-0.79,1.217-1.265,1.758
			c-0.555,0.633-1.159,1.23-1.797,1.778c-0.868,0.747-1.798,1.42-2.681,2.149c-0.36,0.299-0.653,0.676-1.003,0.987
			c-0.149,0.133-0.358,0.228-0.556,0.272c-0.312,0.072-0.647,0.054-0.954,0.139c-0.574,0.159-1.233,0.241-1.671,0.588
			c-0.409,0.326-0.845,0.532-1.292,0.609c-0.39,0.066-0.558,0.245-0.707,0.531c-0.034,0.065-0.009,0.162-0.012,0.244
			c-0.083,0-0.165,0-0.247,0c-0.524-0.068-1.056-0.229-1.57-0.183c-0.567,0.05-0.988-0.271-0.962-0.639
			c0.05-0.714-0.366-1.423,0.031-2.147c0.134-0.244,0.021-0.624,0.021-0.941c-0.076-0.07,0.086-0.138,0.098-0.225
			c0.11-0.809,0.439-1.691,0.231-2.416c-0.359-1.251,0.305-2.413,0-3.66c-0.207-0.843,0.113-1.809,0.167-2.722
			c0.032-0.536,0.021-1.077,0.003-1.614c-0.022-0.633-0.107-1.264-0.104-1.895c0.005-0.9,0.066-1.8,0.097-2.7
			c0.001-0.053-0.04-0.118-0.08-0.158c-0.276-0.276-0.267-0.573-0.176-0.941c0.069-0.28-0.018-0.604-0.052-0.907
			c-0.095-0.857-0.235-1.712-0.289-2.572c-0.05-0.809-0.011-1.624-0.011-2.436c0-0.684,0.003-1.367-0.002-2.051
			c-0.001-0.223-0.031-0.447-0.039-0.671c-0.044-1.378-0.461-2.739-0.104-4.14c0.136-0.532,0.164-1.113,0.128-1.664
			c-0.083-1.324-0.212-2.646-0.364-3.964c-0.056-0.485-0.094-1.058-0.368-1.413c-0.697-0.902-0.796-1.295-0.265-2.281
			c0.121-0.224,0.235-0.488,0.234-0.734C9.214,46.42,9.17,45.48,9.125,44.541c-0.018-0.363-0.061-0.728-0.128-1.085
			c-0.046-0.248-0.179-0.478-0.231-0.725c-0.138-0.65-0.288-1.3-0.37-1.957c-0.083-0.669-0.09-1.347-0.134-2.02
			c-0.014-0.201-0.02-0.407-0.063-0.603c-0.175-0.779-0.378-1.552-0.543-2.333c-0.2-0.94,0.296-1.896-0.194-2.874
			c-0.271-0.539-0.128-1.282-0.187-1.932C7.205,30.23,7.09,29.451,7.05,28.667c-0.064-1.239-0.595-2.392-0.449-3.699
			c0.085-0.766,0.062-1.656-0.37-2.476c-0.272-0.518-0.161-1.249-0.183-1.885c-0.031-0.924-0.018-1.85-0.04-2.774
			c-0.015-0.611-0.096-1.223-0.081-1.833c0.015-0.557-0.566-1.054-0.145-1.649c0.042-0.059-0.059-0.219-0.094-0.332
			c-0.04-0.129-0.117-0.257-0.117-0.386c0.002-0.798,0.056-1.598,0.013-2.392c-0.014-0.26-0.265-0.508-0.407-0.762
			C5.179,10.356,5.179,10.233,5.179,10.109z M17.438,84.55c0.415-0.112,0.758-0.196,1.094-0.3c0.128-0.039,0.274-0.093,0.362-0.188
			c0.581-0.615,1.149-1.242,1.719-1.869c0.213-0.234,0.473-0.446,0.621-0.719c0.456-0.844,0.974-1.676,0.901-2.702
			c-0.004-0.05,0.064-0.101,0.083-0.157c0.217-0.645,0.457-1.283,0.639-1.938c0.298-1.072,0.581-2.15,0.822-3.236
			c0.14-0.629,0.224-1.275,0.264-1.918c0.047-0.762,0.017-1.527,0.027-2.292c0.001-0.075,0.072-0.148,0.081-0.227
			c0.049-0.419,0.118-0.839,0.124-1.26c0.004-0.431-0.044-0.863-0.091-1.293c-0.114-1.03-0.18-2.069-0.379-3.083
			c-0.218-1.112-0.562-2.2-0.854-3.297c-0.081-0.306-0.156-0.613-0.258-0.911c-0.214-0.616-0.388-1.253-0.679-1.831
			c-0.465-0.926-0.988-1.826-1.533-2.707c-0.527-0.853-1.051-1.719-1.69-2.483c-0.495-0.591-1.239-0.972-1.738-1.56
			c-0.667-0.785-1.704-0.742-2.468-1.272c-0.061-0.042-0.218,0.05-0.329,0.084c-0.283,0.086-0.56,0.217-0.849,0.253
			c-0.565,0.071-0.847,0.326-0.831,0.891c0.028,1.015,0.132,2.025,0.046,3.046c-0.064,0.768-0.039,1.546-0.013,2.317
			c0.036,1.084,0.105,2.166,0.171,3.248c0.03,0.479,0.072,0.956,0.139,1.43c0.078,0.552,0.198,1.098,0.286,1.648
			c0.066,0.418,0.037,0.867,0.179,1.255c0.312,0.851,0.49,1.706,0.426,2.612c-0.021,0.311-0.006,0.623-0.005,0.936
			c0.002,0.475,0.039,0.953-0.001,1.424c-0.034,0.396-0.205,0.78-0.229,1.176c-0.069,1.135-0.097,2.273-0.137,3.41
			c-0.028,0.812,0.764,1.504,0.348,2.381c-0.081,0.17-0.083,0.376-0.136,0.639c0.478,0.564,0.15,1.309,0.089,1.993
			c-0.064,0.72-0.517,1.401-0.2,2.165c0.025,0.059-0.029,0.148-0.037,0.225c-0.05,0.481-0.081,0.965-0.149,1.442
			c-0.081,0.556-0.194,1.106-0.292,1.659c-0.04,0.223-0.077,0.445-0.12,0.668c-0.078,0.404,0.293,0.801-0.077,1.251
			c-0.161,0.196-0.047,0.675,0.035,1.001c0.123,0.495,0.501,0.457,0.895,0.035c0.409-0.024,0.725,0.028,0.977-0.074
			c0.456-0.187,0.89-0.442,1.301-0.717c0.191-0.129,0.372-0.346,0.448-0.561C16.68,84.406,16.972,84.248,17.438,84.55z
			 M7.629,10.566c0.034,0.269,0.077,0.544,0.104,0.822c0.059,0.587,0.097,1.177,0.167,1.763c0.101,0.848-0.156,1.712,0.123,2.549
			c0.047,0.143,0.195,0.383,0.17,0.401c-0.461,0.329-0.216,0.594,0.043,0.878c0.041,0.045,0.012,0.157,0.012,0.238
			c0,0.291-0.018,0.583,0.001,0.874c0.029,0.439,0.226,0.921,0.101,1.304c-0.33,1.005,0.22,1.823,0.484,2.671
			c0.418,1.337,1.043,2.609,1.54,3.924c0.21,0.559,0.356,1.148,0.461,1.737c0.083,0.471,0.267,0.927,0.063,1.458
			c-0.094,0.245,0.297,0.635,0.318,0.97c0.08,1.28,0.088,2.563,0.142,3.844c0.027,0.63,0.042,1.268,0.161,1.883
			c0.111,0.577,0.413,1.119,0.518,1.697c0.12,0.654,0.539,1.336-0.021,2c-0.05,0.06-0.007,0.235,0.039,0.335
			c0.377,0.835,0.206,1.705,0.161,2.563c-0.02,0.399-0.097,0.795-0.12,1.194c-0.022,0.392,0.096,0.826-0.035,1.169
			c-0.178,0.462,0.048,0.821,0.306,0.934c0.284,0.125,0.8,0.07,1.04-0.123c0.927-0.747,1.789-1.574,2.663-2.385
			c0.228-0.21,0.421-0.462,0.614-0.708c0.235-0.301,0.403-0.676,0.688-0.913c0.649-0.537,1.258-1.041,1.35-1.983
			c0.041-0.413,0.474-0.789,0.508-1.2c0.048-0.565-0.139-1.146-0.176-1.723c-0.045-0.705-0.076-1.414-0.042-2.117
			c0.027-0.559,0.139-1.118,0.259-1.667c0.08-0.365,0.356-0.717,0.341-1.066c-0.041-0.927-0.2-1.849-0.294-2.774
			c-0.016-0.152,0.052-0.314,0.089-0.47c0.049-0.209,0.142-0.416,0.152-0.626c0.032-0.629,0.018-1.26,0.051-1.888
			c0.019-0.359,0.16-0.72,0.136-1.073c-0.097-1.52-0.234-3.038-0.358-4.556c-0.042-0.511-0.076-1.025-0.143-1.534
			c-0.052-0.395-0.17-0.781-0.224-1.176c-0.12-0.88-0.349-1.696-1.018-2.343c-0.35-0.338-0.648-0.729-0.955-1.109
			c-0.302-0.374-0.553-0.732-1.08-0.913c-0.737-0.252-1.425-0.675-2.097-1.086c-0.883-0.542-1.719-1.158-2.599-1.704
			c-0.166-0.103-0.449-0.06-0.667-0.022c-0.293,0.05-0.583,0.228-0.811-0.134c-0.025-0.04-0.164-0.015-0.25-0.01
			C8.943,10.498,8.339,10.529,7.629,10.566z M22.362,52.18c-0.327-1.616-2.56-4-3.583-3.928
			C19.948,49.534,21.113,50.812,22.362,52.18z"/>
		<path fill-rule="evenodd" clip-rule="evenodd" fill="#FFFFFF" d="M198.821,22.59c-0.041,0.083-0.112,0.166-0.117,0.25
			c-0.048,1.125-0.087,2.249-0.13,3.374c-0.039,1.065-0.125,2.13-0.106,3.194c0.011,0.685-0.115,1.291-0.462,1.874
			c-0.108,0.182-0.15,0.42-0.167,0.638c-0.092,1.24-0.187,2.48-0.245,3.723c-0.067,1.406-0.098,2.812-0.146,4.218
			c-0.035,1.045,0.066,2.12-0.147,3.128c-0.227,1.068,0.261,2.081,0.012,3.12c-0.083,0.347,0.021,0.76-0.124,1.067
			c-0.311,0.661-0.067,1.239,0.078,1.86c0.088,0.383,0.19,0.746-0.186,1.17c-0.228,0.256-0.006,0.896-0.016,1.362
			c-0.018,0.798-0.06,1.594-0.087,2.392c-0.023,0.709-0.031,1.42-0.059,2.129c-0.017,0.421-0.064,0.841-0.09,1.262
			c-0.021,0.355-0.012,0.714-0.049,1.068c-0.029,0.277-0.149,0.549-0.156,0.824c-0.013,0.633,0.013,1.266,0.032,1.899
			c0.011,0.325,0.069,0.651,0.06,0.976c-0.028,0.965-0.066,1.93-0.123,2.895c-0.046,0.734-0.13,1.468-0.188,2.203
			c-0.029,0.389-0.062,0.779-0.051,1.168c0.023,0.736,0.129,1.474,0.104,2.207c-0.028,0.785-0.168,1.566-0.257,2.35
			c-0.037,0.33-0.056,0.661-0.101,0.99c-0.159,1.156-0.276,2.321-0.506,3.464c-0.19,0.939-0.407,1.904-0.817,2.761
			c-0.408,0.857-0.393,1.791-0.748,2.65c-0.301,0.729-0.769,1.162-1.534,1.348c-0.635,0.153-1.218,0.514-1.827,0.775
			c-0.687,0.298-1.202,0.959-2.043,0.946c-0.184-0.003-0.369,0.141-0.554,0.216c-0.759-0.762-1.496-1.427-2.756-1.279
			c-0.532,0.062-1.198-0.402-1.688-0.777c-0.475-0.364-0.943-0.767-1.049-1.508c-0.066-0.459-0.585-0.856-0.912-1.272
			c-0.576-0.733-1.202-1.433-1.727-2.2c-0.234-0.344-0.254-0.829-0.413-1.233c-0.071-0.181-0.246-0.319-0.31-0.397
			c-0.061-0.721-0.156-1.404-0.159-2.09c-0.002-0.416,0.087-0.854,0.233-1.246c0.168-0.453,0.494-0.551,1.044-0.562
			c0.606-0.013,0.899,0.054,1.029,0.634c0.017,0.07,0.083,0.186,0.129,0.188c0.658,0.021,0.91,0.396,0.967,1.009
			c0.046,0.499,0.123,1.001,0.242,1.486c0.158,0.648,0.268,1.341,0.584,1.909c0.445,0.8,0.979,1.593,1.635,2.221
			c0.475,0.453,1.209,0.638,1.832,0.932c0.143,0.066,0.308,0.083,0.461,0.129c0.197,0.062,0.525,0.23,0.566,0.176
			c0.161-0.211,0.231-0.492,0.383-0.863c0.174,0.04,0.468,0.109,0.811,0.189c0.371-0.51,0.838-1.08,1.228-1.698
			c0.792-1.257,1.491-2.558,1.587-4.094c0.013-0.205,0.138-0.41,0.237-0.602c0.492-0.942,0.535-1.994,0.738-3.005
			c0.21-1.043,0.391-2.1,0.482-3.16c0.136-1.547,0.226-3.102,0.245-4.654c0.013-0.936,0.124-1.859,0.148-2.793
			c0.019-0.709,0.165-1.414,0.176-2.123c0.014-0.805-0.064-1.611-0.097-2.418c-0.037-0.948-0.064-1.896-0.104-2.846
			c-0.023-0.569-0.115-1.143-0.081-1.709c0.068-1.189,0.195-2.375,0.308-3.562c0.041-0.444,0.149-0.886,0.151-1.328
			c0.005-1.12-0.007-2.225,0.209-3.348c0.156-0.817-0.066-1.706-0.129-2.699c-1.141,1.771-2.867,2.727-4.377,4.031
			c-0.429-0.364-0.83-0.189-1.049,0.345c-0.366-0.049-0.675-0.122-0.983-0.125c-0.425-0.003-0.849,0.067-1.273,0.064
			c-0.3-0.001-0.599-0.084-0.898-0.111c-1.337-0.119-2.447-0.792-3.317-1.705c-0.576-0.604-1.192-1.296-1.294-2.268
			c-0.083-0.785-0.375-1.545-0.518-2.327c-0.058-0.32,0.024-0.668,0.06-1.002c0.021-0.222,0.164-0.475,0.097-0.657
			c-0.373-1.007-0.014-1.975,0.098-2.956c0.014-0.121,0.054-0.249,0.031-0.363c-0.253-1.324-0.073-2.642-0.027-3.969
			c0.05-1.422-0.136-2.853-0.201-4.281c-0.027-0.607,0.004-1.217-0.019-1.825c-0.017-0.428-0.116-0.855-0.109-1.281
			c0.018-1.107,0.095-2.214,0.107-3.322c0.007-0.567-0.122-1.138-0.104-1.704c0.025-0.769,0.18-1.533,0.197-2.301
			c0.035-1.502,0.452-2.941,0.64-4.416c0.063-0.49-0.046-1.003,0.031-1.489c0.111-0.708,0.246-1.428,0.503-2.091
			c0.316-0.812,1.171-1.052,1.88-0.565c0.388,0.267,0.696,0.654,1.012,1.012c0.074,0.086,0.099,0.341,0.034,0.406
			c-0.604,0.604-0.202,1.421-0.468,2.097c-0.232,0.589-0.42,1.2-0.575,1.813c-0.055,0.212-0.03,0.515,0.087,0.688
			c0.267,0.386,0.188,0.728-0.041,1.046c-0.303,0.419-0.388,0.842-0.368,1.369c0.036,1.005-0.086,2.014-0.093,3.022
			c-0.004,0.715,0.096,1.43,0.106,2.146c0.005,0.403-0.142,0.814-0.103,1.209c0.159,1.568,0.366,3.131,0.55,4.696
			c0.106,0.908,0.179,1.819,0.31,2.724c0.121,0.836,0.29,1.667,0.455,2.497c0.178,0.887,0.375,1.768,0.564,2.652
			c0.008,0.034,0.035,0.086,0.025,0.096c-0.62,0.555-0.289,0.927,0.229,1.28c0.124,0.084,0.238,0.213,0.305,0.346
			c0.483,0.947,1.269,1.641,2.034,2.325c0.857,0.766,1.561,0.743,2.546,0.146c0.128-0.077,0.308-0.081,0.464-0.09
			c0.713-0.042,0.82-0.131,0.952-0.818c0.576,0.086,1.189-0.542,1.254-1.278c0.03-0.331,0.105-0.574,0.382-0.869
			c0.4-0.428,0.571-1.089,0.781-1.673c0.188-0.528,0.205-1.136,0.466-1.617c0.41-0.755,0.584-1.559,0.64-2.375
			c0.074-1.093,0.033-2.195,0.011-3.293c-0.011-0.463-0.127-0.923-0.152-1.388c-0.032-0.587-0.029-1.176-0.023-1.764
			c0.007-0.658,0.035-1.315,0.052-1.973c0.005-0.228,0.015-0.457,0.002-0.685c-0.017-0.323-0.056-0.644-0.079-0.967
			c-0.029-0.415-0.014-0.836-0.086-1.243c-0.089-0.519-0.242-1.027-0.377-1.539c-0.054-0.208-0.201-0.417-0.182-0.613
			c0.14-1.497,0.336-2.989,0.459-4.487c0.039-0.473-0.086-0.961-0.142-1.44c-0.019-0.159-0.062-0.316-0.081-0.475
			c-0.087-0.701-0.146-1.406-0.271-2.099c-0.029-0.162-0.278-0.284-0.363-0.388c-0.69-0.867,0.191-1.36,0.471-1.939
			c0.324-0.67,1.474-0.356,1.891,0.431c0.31,0.586,0.662,1.15,0.989,1.729c0.373,0.659,0.393,1.416,0.059,2.009
			c-0.284,0.509-0.048,0.807,0.2,0.978c0.943,0.648,0.746,1.636,0.837,2.525c0.082,0.795,0.046,1.602,0.092,2.402
			c0.034,0.621,0.104,1.241,0.176,1.86c0.07,0.611,0.163,1.22,0.244,1.831C198.821,20.531,198.821,21.561,198.821,22.59z
			 M190.384,41.791c-0.009-0.055-0.017-0.109-0.024-0.164c-0.102,0-0.204-0.013-0.305,0.002c-0.475,0.075-0.954,0.247-1.42,0.211
			c-0.4-0.029-0.822-0.234-1.167-0.464c-0.381-0.254-0.63-0.772-1.029-0.913c-1.011-0.36-1.522-1.262-2.289-1.876
			c-0.271-0.216-0.503-0.479-0.753-0.722c-0.051,0.036-0.101,0.073-0.15,0.108c0,0.275,0.022,0.553-0.003,0.826
			c-0.084,0.848,0.173,1.634,0.354,2.444c0.105,0.47,0.238,0.806,0.68,1.014c0.61,0.287,1.219,0.58,1.806,0.91
			c0.832,0.467,1.674,0.278,2.14-0.489C189.259,43.043,189.656,42.044,190.384,41.791z"/>
		<path fill-rule="evenodd" clip-rule="evenodd" fill="#FFFFFF" d="M170.271,5.148c0.387,0.269,0.651,0.608,0.909,0.603
			c0.747-0.014,1.141,0.523,1.609,0.909c0.37,0.304,0.716,0.721,0.893,1.16c0.478,1.185,0.884,2.401,1.263,3.623
			c0.105,0.34,0.042,0.741,0.022,1.112c-0.046,0.842,0.345,1.688,0.28,2.444c-0.087,1.035,0.438,1.904,0.37,2.904
			c-0.075,1.118,0.096,2.25,0.108,3.375c0.009,1.056-0.053,2.113-0.074,3.17c-0.013,0.653,0.003,1.307-0.022,1.96
			c-0.007,0.186-0.142,0.365-0.159,0.553c-0.095,1.021-0.164,2.043-0.255,3.064c-0.071,0.786-0.154,1.57-0.243,2.354
			c-0.117,1.047-0.277,2.091-0.365,3.141c-0.179,2.134-0.236,4.282-0.504,6.404c-0.188,1.476-0.01,2.92-0.022,4.379
			c-0.007,0.832-0.269,1.66-0.409,2.491c-0.031,0.18-0.102,0.382-0.051,0.542c0.365,1.141-0.108,2.241-0.146,3.361
			c-0.031,0.898-0.23,1.793,0.097,2.678c0.023,0.062,0,0.157-0.032,0.222c-0.168,0.335-0.021,0.714-0.08,1.009
			c-0.241,1.23,0.487,2.418,0.064,3.647c-0.121,0.35-0.006,0.782,0.01,1.177c0.021,0.531-0.086,1.121,0.109,1.58
			c0.358,0.842-0.021,1.646,0.035,2.469c0.058,0.827,0.304,1.729-0.108,2.561c-0.018,0.036-0.063,0.096-0.061,0.099
			c0.678,0.526-0.008,1.137,0.108,1.692c0.049,0.234,0.15,0.457,0.233,0.684c0.034,0.095,0.145,0.22,0.115,0.271
			c-0.46,0.814,0.3,1.577,0.089,2.421c-0.091,0.356,0.019,0.771-0.275,1.105c-0.045,0.052-0.035,0.222,0.014,0.277
			c0.535,0.603,0.316,1.319,0.309,1.997c-0.012,1.091-0.069,2.174,0.191,3.258c0.108,0.449-0.149,0.986-0.044,1.438
			c0.189,0.807-0.342,1.273-0.688,1.828c-0.271,0.434-0.86,0.4-1.305-0.125c-0.359,0.307-0.715,0.617-1.078,0.915
			c-0.107,0.089-0.235,0.169-0.366,0.208c-0.936,0.279-1.771-0.282-1.903-1.263c-0.013-0.093-0.059-0.216-0.13-0.257
			c-0.374-0.219-0.202-0.459-0.106-0.762c0.346-1.105,0.771-2.213,0.487-3.408c-0.16-0.678-0.464-1.344-0.5-2.026
			c-0.062-1.19-0.459-2.331-0.324-3.569c0.061-0.559,0.355-1.219-0.055-1.898c-0.212-0.353,0.132-1.008,0.135-1.527
			c0.007-1.636-0.034-3.271-0.042-4.906c-0.003-0.645,0.017-1.29,0.059-1.934c0.064-0.994,0.151-1.986,0.241-2.979
			c0.029-0.321,0.112-0.639,0.146-0.96c0.122-1.242,0.06-2.534,0.396-3.715c0.371-1.305,0.383-2.595,0.457-3.909
			c0.049-0.862,0.239-1.717,0.344-2.576c0.044-0.361-0.047-0.597-0.516-0.632c-0.796-0.06-1.583-0.228-2.376-0.329
			c-0.324-0.042-0.656-0.035-0.983-0.043c-0.376-0.009-0.759,0.032-1.126-0.021c-0.517-0.074-1.018-0.257-1.533-0.312
			c-0.262-0.027-0.533-0.175-0.852,0.156c-0.229,0.237-0.849,0.269-1.222,0.156c-0.759-0.229-1.476,0.023-2.202-0.018
			c-0.319-0.019-0.621-0.342-0.941,0.01c-0.074,0.08-0.208,0.16-0.21,0.244c-0.023,0.62,0.011,1.243-0.035,1.861
			c-0.04,0.561-0.152,1.117-0.243,1.674c-0.186,1.146-0.542,2.272-0.297,3.467c0.052,0.253-0.166,0.558-0.241,0.844
			c-0.047,0.177-0.064,0.361-0.084,0.545c-0.008,0.078,0.051,0.196,0.014,0.236c-0.588,0.654-0.035,1.367-0.115,2.043
			c-0.08,0.683-0.153,1.367-0.255,2.047c-0.081,0.555-0.214,1.102-0.3,1.656c-0.153,0.997-0.312,1.995-0.423,2.998
			c-0.057,0.511,0.021,1.036-0.022,1.551c-0.028,0.354-0.214,0.695-0.237,1.049c-0.045,0.659,0.005,1.324-0.036,1.982
			c-0.025,0.415-0.147,0.822-0.223,1.232c-0.203,1.108-0.371,2.223-0.617,3.321c-0.147,0.655-0.427,1.28-0.623,1.927
			c-0.152,0.506-0.265,1.023-0.396,1.533c-0.174,0.662-0.374,1.316-0.511,1.986c-0.068,0.332-0.012,0.689-0.036,1.035
			c-0.014,0.195-0.068,0.389-0.123,0.578c-0.084,0.285-0.191,0.562-0.271,0.848c-0.031,0.115,0.031,0.269-0.022,0.365
			c-0.403,0.731-0.281,1.572-0.5,2.332c-0.138,0.479-0.417,0.977-0.774,1.319c-0.444,0.429-1.051-0.114-1.162-0.325
			c-0.349-0.664-0.896-0.408-1.338-0.431c-0.619-0.032-0.995-0.419-0.87-1.022c0.083-0.396,0.066-0.812,0.092-1.221
			c0.007-0.123-0.029-0.258,0.008-0.369c0.17-0.51,0.379-1.007,0.533-1.52c0.101-0.34,0.212-0.706,0.184-1.049
			c-0.071-0.813,0.181-1.519,0.458-2.267c0.274-0.743,0.298-1.579,0.428-2.376c0.114-0.689,0.21-1.383,0.338-2.069
			c0.106-0.573,0.252-1.138,0.37-1.708c0.099-0.475,0.167-0.953,0.277-1.424c0.251-1.066,0.522-2.129,0.776-3.194
			c0.048-0.202,0.065-0.411,0.085-0.62c0.126-1.398,0.231-2.799,0.38-4.194c0.065-0.603,0.401-1.235,0.287-1.784
			c-0.158-0.756,0.431-1.279,0.342-1.986c-0.088-0.714-0.035-1.448-0.011-2.172c0.018-0.59,0.074-1.178,0.135-1.765
			c0.109-1.028,0.202-2.06,0.361-3.081c0.128-0.813,0.372-1.608,0.517-2.42c0.18-1.014,0.297-2.04,0.469-3.056
			c0.093-0.549,0.291-1.084,0.358-1.636c0.118-0.973,0.145-1.957,0.267-2.929c0.091-0.728,0.271-1.445,0.411-2.167
			c0.026-0.139,0.039-0.28,0.07-0.417c0.09-0.383,0.188-0.763,0.277-1.146c0.156-0.646,0.354-1.288,0.453-1.943
			c0.169-1.122,0.329-2.24,0.855-3.267c0.034-0.066,0.047-0.188,0.009-0.24c-0.555-0.75,0.125-1.365,0.224-2.04
			c0.065-0.459,0.185-0.912,0.285-1.365c0.022-0.096,0.06-0.193,0.109-0.278c0.499-0.838,0.527-1.733,0.404-2.674
			c-0.051-0.382,0.037-0.803,0.148-1.181c0.261-0.881,0.594-1.74,0.86-2.62c0.147-0.49,0.132-1.044,0.348-1.493
			c0.41-0.854,0.112-1.913,0.818-2.663c0.04-0.042,0.074-0.111,0.072-0.166c-0.035-0.715,0.345-1.307,0.573-1.943
			c0.112-0.312,0.251-0.614,0.38-0.919c0.028-0.068,0.091-0.125,0.106-0.194c0.135-0.599,0.249-1.205,0.399-1.8
			c0.043-0.167,0.191-0.306,0.275-0.465c0.357-0.665,0.697-1.339,1.065-1.996c0.55-0.984,1.085-1.98,1.693-2.928
			c0.438-0.684,1.009-1.251,1.333-2.05c0.161-0.399,0.939-0.652,1.482-0.766c0.519-0.109,1.098,0.017,1.64,0.103
			c0.325,0.05,0.63,0.228,0.948,0.332C170.274,5.179,170.362,5.126,170.271,5.148z M171.197,65.898
			c0.748-0.77,0.058-1.527,0.013-2.291c-0.334,0.766-0.477,1.53-0.007,2.289c-0.064,0.398-0.092,0.808-0.203,1.193
			c-0.241,0.823-0.416,1.625-0.27,2.512c0.103,0.623-0.041,1.289-0.086,1.936c-0.018,0.258-0.143,0.532-0.086,0.768
			c0.204,0.85,0.464,1.685,0.753,2.695c0.136-0.292,0.329-0.506,0.303-0.686c-0.186-1.258,0.328-2.469,0.072-3.77
			c-0.299-1.517-0.222-3.107-0.309-4.686C171.35,65.865,171.273,65.882,171.197,65.898z M171.777,11.714
			c0.205-0.493,0.134-0.817-0.262-1.06c-0.07-0.042-0.084-0.174-0.127-0.262c-0.307-0.62-0.604-1.247-0.934-1.856
			c-0.099-0.183-0.268-0.358-0.448-0.456c-0.194-0.106-0.552-0.235-0.645-0.147c-0.474,0.447-1.04,0.892-1.287,1.462
			c-0.569,1.312-0.97,2.697-1.448,4.049c-0.111,0.312-0.286,0.604-0.388,0.918c-0.12,0.374-0.192,0.764-0.288,1.146
			c-0.229,0.902-0.162,1.884-0.811,2.677c-0.256,0.315-0.426,0.733-0.533,1.132c-0.193,0.715-0.305,1.452-0.459,2.178
			c-0.176,0.826-0.39,1.646-0.538,2.478c-0.155,0.873-0.229,1.761-0.382,2.635c-0.182,1.04-0.408,2.071-0.622,3.105
			c-0.037,0.177-0.106,0.345-0.166,0.516c-0.143,0.413-0.478,0.868-0.392,1.226c0.15,0.638,0.067,1.155-0.157,1.745
			c-0.28,0.745-0.4,1.549-0.629,2.314c-0.238,0.802-0.618,1.545-0.66,2.424c-0.025,0.568-0.244,1.23-0.606,1.658
			c-0.727,0.859-0.725,1.897-0.954,2.879c-0.119,0.511-0.071,1.06-0.182,1.575c-0.139,0.647-0.028,0.859,0.638,0.907
			c0.594,0.044,1.189,0.089,1.785,0.103c0.521,0.011,1.135,0.146,1.55-0.071c0.814-0.425,1.571-0.34,2.381-0.15
			c0.153,0.035,0.402,0.081,0.468,0.003c0.323-0.386,0.618-0.272,1.011-0.102c0.296,0.129,0.765,0.207,0.996,0.059
			c0.51-0.327,0.872-0.457,1.226,0.152c0.076,0.132,0.245,0.209,0.369,0.314c0.45,0.385,1.326,0.16,1.482-0.426
			c0.205-0.766,0.389-1.545,0.485-2.331c0.132-1.074,0.171-2.161,0.254-3.242c0.117-1.517,0.013-3.049,0.675-4.512
			c0.298-0.656-0.298-1.535,0.299-2.221c0.019-0.021,0.013-0.084-0.006-0.115c-0.452-0.804-0.019-1.636-0.056-2.454
			c-0.037-0.853,0.139-1.714,0.203-2.572c0.08-1.078,0.141-2.158,0.212-3.237c0.051-0.752,0.159-1.507,0.144-2.258
			c-0.019-0.85-0.136-1.7-0.231-2.548c-0.148-1.339-0.306-2.677-0.476-4.013C172.112,14.1,171.936,12.867,171.777,11.714z
			 M161.712,21.932c-1.158,1.561-1.18,3.358-1.067,5.186C160.927,25.372,161.76,23.748,161.712,21.932z M160.584,27.516
			c-0.9,0.418-0.447,1.272-0.803,1.814c-0.381,0.581-0.526,1.251-0.409,1.986c0.263-0.249,0.532-0.511,0.624-0.824
			c0.237-0.814,0.401-1.651,0.585-2.481C160.609,27.877,160.584,27.73,160.584,27.516z M171.493,76.915
			c0.066-0.013,0.132-0.024,0.197-0.037c-0.038-0.506-0.06-1.015-0.13-1.517c-0.013-0.092-0.22-0.158-0.337-0.236
			c-0.067,0.115-0.21,0.251-0.187,0.342C171.166,75.956,171.337,76.434,171.493,76.915z M159.649,31.529
			c-0.089-0.015-0.177-0.029-0.265-0.043c-0.093,0.521-0.186,1.043-0.278,1.565c0.075,0.015,0.149,0.03,0.225,0.046
			C159.904,32.68,159.435,32.026,159.649,31.529z"/>
		<path fill-rule="evenodd" clip-rule="evenodd" fill="#FFFFFF" d="M131.4,82.197c-0.228,0.203-0.363,0.325-0.366,0.328
			c-0.377,0.035-0.605,0.035-0.823,0.084c-0.499,0.112-1.193-0.641-1.116-1.16c0.059-0.4,0.005-0.818,0.006-1.229
			c0-0.111,0-0.229,0.039-0.329c0.035-0.091,0.191-0.177,0.179-0.237c-0.199-0.881,0.622-1.777-0.042-2.648
			c-0.032-0.043-0.022-0.119-0.025-0.18c-0.044-0.893-0.074-1.785-0.129-2.677c-0.09-1.489,0.223-2.956,0.24-4.429
			c0.011-0.979,0.609-1.713,0.69-2.668c0.12-1.396,0.427-2.752,0.398-4.195c-0.02-0.949,0.055-1.975,0.167-2.959
			c0.019-0.165-0.025-0.339,0.001-0.502c0.067-0.432,0.158-0.858,0.242-1.287c0.034-0.174,0.102-0.344,0.114-0.52
			c0.086-1.202,0.188-2.404,0.233-3.609c0.044-1.189-0.097-2.4,0.07-3.568c0.148-1.045-0.064-2.144,0.499-3.152
			c0.228-0.407,0.1-1,0.196-1.496c0.196-1.004,0.456-1.997,0.646-3.002c0.082-0.438,0.062-0.897,0.086-1.347
			c0.042-0.854,0.063-1.709,0.132-2.562c0.041-0.498,0.221-0.99,0.222-1.484c0.001-0.794-0.111-1.587-0.141-2.383
			c-0.024-0.687-0.019-1.375,0.01-2.062c0.026-0.672,0.087-1.343,0.152-2.012c0.063-0.622,0.163-1.239,0.227-1.861
			c0.098-0.95,0.173-1.901,0.266-2.851c0.116-1.17,0.263-2.339,0.353-3.51c0.041-0.513-0.074-1.038-0.032-1.551
			c0.111-1.363,0.253-2.724,0.411-4.083c0.149-1.298,0.406-2.588,0.482-3.89c0.065-1.099-0.086-2.208-0.093-3.312
			c-0.006-0.734,0.112-1.47,0.094-2.203c-0.007-0.32-0.247-0.629-0.326-0.957c-0.047-0.204-0.004-0.434,0.019-0.65
			c0.065-0.622,0.229-1.249,0.19-1.863c-0.047-0.751,0.662-1.616,1.399-1.472c0.399,0.078,0.763,0.323,1.148,0.474
			c0.421,0.164,0.865,0.276,1.269,0.469c0.454,0.218,0.882,0.489,1.307,0.76c0.524,0.334,0.994,0.875,1.559,0.995
			c0.633,0.134,0.711,0.542,0.857,0.953c0.129,0.362,0.211,0.693,0.694,0.668c0.083-0.004,0.184,0.074,0.256,0.138
			c0.619,0.56,1.257,1.105,1.845,1.697c0.348,0.352,0.633,0.772,0.921,1.178c0.326,0.456,0.642,0.921,0.931,1.401
			c0.526,0.873,1.035,1.755,1.535,2.644c0.173,0.307,0.3,0.642,0.442,0.965c0.472,1.07,0.987,2.126,1.4,3.219
			c0.287,0.757,0.418,1.572,0.647,2.352c0.084,0.286,0.278,0.539,0.376,0.822c0.103,0.298,0.309,0.725,0.187,0.901
			c-0.295,0.426,0.004,0.611,0.117,0.941c0.199,0.58,0.363,1.253,0.256,1.834c-0.129,0.696,0.241,1.233,0.278,1.856
			c0.06,1.031,0.157,2.059,0.228,3.088c0.025,0.379,0.021,0.76,0.014,1.14c-0.006,0.386,0.021,0.784-0.06,1.156
			c-0.192,0.891-0.256,1.766-0.225,2.689c0.022,0.691,0.323,1.489-0.197,2.167c-0.085,0.11-0.14,0.313-0.1,0.438
			c0.298,0.938-0.161,1.785-0.305,2.664c-0.197,1.208-0.741,2.354-0.536,3.634c0.078,0.484-0.274,0.938,0.014,1.515
			c0.164,0.331-0.256,0.921-0.325,1.406c-0.26,1.834-0.473,3.676-0.731,5.51c-0.093,0.652-0.293,1.288-0.402,1.938
			c-0.24,1.435-0.475,2.87-0.666,4.312c-0.052,0.396,0.121,0.817,0.079,1.216c-0.083,0.778-0.244,1.548-0.369,2.322
			c-0.038,0.236-0.137,0.49-0.091,0.711c0.25,1.176-0.062,2.271-0.352,3.393c-0.29,1.13-0.503,2.273-0.336,3.475
			c0.069,0.496-0.245,1.038-0.327,1.567c-0.183,1.163-0.314,2.333-0.497,3.495c-0.07,0.451-0.148,0.93-0.362,1.319
			c-0.195,0.357-0.219,0.681-0.095,1.006c0.197,0.513-0.035,0.86-0.286,1.276c-0.44,0.724-0.922,1.404-1.589,1.926
			c-0.711,0.555-1.455,1.068-2.188,1.598c-0.597,0.432-1.17,0.904-1.804,1.272c-0.597,0.346-1.244,0.642-2.02,0.486
			c-0.57,0.372-1.196,0.772-1.812,1.186c-0.238,0.16-0.452,0.356-0.686,0.526c-0.595,0.433-1.186,0.871-1.795,1.284
			c-0.634,0.429-1.3,0.641-1.772,0.205c-0.325-0.299-0.525-0.803-0.631-1.251c-0.076-0.326,0.092-0.71,0.151-1.07
			c1.181,0.07,2.061-0.558,2.873-1.346c0.403-0.393,0.852-0.74,1.252-1.137c0.4-0.395,0.768-0.822,1.146-1.242
			c0.078-0.087,0.126-0.273,0.204-0.282c0.602-0.074,0.666-0.503,0.664-1.002c0.762,0.175,0.853-0.442,1.084-0.883
			c0.062-0.12,0.044-0.358,0.118-0.384c0.712-0.244,0.7-1.006,1.03-1.5c0.337-0.5,0.548-1.048,1.013-1.513
			c0.466-0.465,0.694-1.163,0.83-1.874c0.137-0.71,0.419-1.414,0.76-2.056c0.31-0.583,0.381-1.233,0.629-1.794
			c0.402-0.908,0.294-1.859,0.536-2.76c0.232-0.865,0.567-1.703,0.826-2.562c0.12-0.396,0.156-0.816,0.243-1.223
			c0.145-0.676,0.318-1.346,0.449-2.025c0.143-0.748,0.267-1.503,0.367-2.259c0.18-1.362,0.32-2.729,0.513-4.089
			c0.064-0.451,0.151-0.938,0.38-1.318c0.338-0.558,0.125-1.077,0.136-1.629c0.014-0.7,0.29-1.393,0.421-2.095
			c0.099-0.522,0.182-1.053,0.205-1.583c0.027-0.57-0.023-1.145-0.038-1.716c-0.002-0.06,0.016-0.121,0.024-0.181
			c0.114-0.674,0.222-1.35,0.345-2.022c0.072-0.392,0.217-0.777,0.242-1.17c0.042-0.628,0.012-1.261-0.101-1.889
			c0.118-0.17,0.303-0.326,0.343-0.513c0.227-1.081,0.479-2.163,0.61-3.258c0.149-1.249,0.21-2.511,0.249-3.77
			c0.025-0.816-0.167-1.651-0.056-2.449c0.082-0.588-0.087-1.188,0.198-1.793c0.159-0.336-0.062-0.878-0.175-1.311
			c-0.104-0.394-0.3-0.762-0.44-1.147c-0.037-0.101-0.051-0.229-0.021-0.331c0.29-1.055-0.006-2.022-0.393-2.992
			c-0.351-0.883-0.635-1.792-0.985-2.675c-0.198-0.497-0.501-0.953-0.705-1.448c-0.277-0.673-0.471-1.382-0.764-2.048
			c-0.219-0.496-0.52-0.959-0.817-1.417c-0.529-0.81-1.048-1.631-1.638-2.396c-0.613-0.799-1.17-1.611-1.525-2.567
			c-0.104-0.275-0.592-0.402-0.707-0.678c-0.358-0.868-1.045-1.352-1.802-1.794c-0.155-0.09-0.26-0.265-0.405-0.378
			c-0.348-0.27-0.68-0.584-1.07-0.769c-0.271-0.129-0.553,0.019-0.546,0.418c0.008,0.494,0.014,0.989-0.003,1.483
			c-0.009,0.217-0.101,0.431-0.11,0.648c-0.01,0.18,0.047,0.362,0.07,0.544c0.041,0.319,0.099,0.638,0.115,0.958
			c0.033,0.675,0.243,1.339-0.022,2.032c-0.125,0.325-0.023,0.733-0.051,1.101c-0.067,0.869-0.197,1.736-0.213,2.606
			c-0.011,0.683,0.109,1.369,0.169,2.054c0.008,0.098,0.042,0.208,0.009,0.291c-0.439,1.115-0.061,2.296-0.265,3.402
			c-0.12,0.654-0.026,1.249-0.034,1.871c-0.013,1.075-0.004,2.152-0.046,3.226c-0.015,0.378-0.157,0.75-0.234,1.126
			c-0.144,0.705,0.019,1.387,0.079,2.086c0.093,1.076-0.069,2.173-0.119,3.262c-0.01,0.191-0.023,0.389,0.012,0.575
			c0.146,0.777-0.01,1.527-0.136,2.288c-0.104,0.638-0.17,1.293-0.152,1.938c0.039,1.431-0.229,2.819-0.46,4.216
			c-0.079,0.483-0.038,0.984-0.098,1.471c-0.07,0.553-0.219,1.096-0.282,1.649c-0.06,0.527-0.034,1.062-0.086,1.592
			c-0.056,0.559-0.17,1.111-0.234,1.67c-0.096,0.827-0.177,1.656-0.252,2.486c-0.091,0.982-0.196,1.965-0.24,2.949
			c-0.042,0.903,0.014,1.811-0.022,2.714c-0.015,0.396-0.171,0.785-0.226,1.184c-0.085,0.614-0.362,1.177-0.189,1.864
			c0.13,0.516-0.122,1.118-0.147,1.686c-0.019,0.418,0.062,0.842,0.085,1.265c0.013,0.228,0.023,0.46-0.005,0.684
			c-0.068,0.54-0.225,1.076-0.222,1.614c0.001,0.401,0.2,0.801,0.302,1.204c0.029,0.116,0.081,0.304,0.028,0.353
			c-0.321,0.291-0.326,0.564-0.043,0.877c0.048,0.053,0.059,0.154,0.056,0.23c-0.035,0.648-0.091,1.297-0.115,1.946
			c-0.019,0.495-0.058,1.001,0.017,1.486c0.086,0.567-0.016,1.028-0.202,1.587c-0.241,0.717-0.048,1.586-0.008,2.387
			c0.025,0.521,0.143,1.037,0.155,1.557c0.03,1.195-0.318,2.395,0.209,3.589c0.113,0.258-0.27,0.751-0.455,1.12
			c-0.075,0.146-0.257,0.234-0.357,0.373c-0.15,0.209-0.345,0.645-0.399,0.625c-0.434-0.146-0.959-0.107-1.234-0.641
			C132.012,82.656,131.666,82.451,131.4,82.197z M141.82,79.535c1.23-0.504,2.358-2.477,1.959-3.564
			C143.104,77.199,142.479,78.338,141.82,79.535z"/>
		<path fill-rule="evenodd" clip-rule="evenodd" fill="#FFFFFF" d="M62.729,9.783c-0.025,0.074-0.071,0.22-0.128,0.363
			c-0.03,0.076-0.063,0.159-0.12,0.214c-0.707,0.684-1.567,0.684-2.248-0.008c-0.286-0.291-0.557-0.597-0.818-0.909
			c-0.868-1.036-2.597-1.249-3.701-0.545c-0.639,0.407-1.493,0.471-2.143,0.865c-0.786,0.477-1.47,1.081-1.716,2.101
			c-0.148,0.61-0.63,1.142-0.968,1.705c-0.059,0.098-0.203,0.167-0.219,0.265c-0.141,0.821-0.251,1.646-0.388,2.468
			c-0.179,1.072-0.376,2.14-0.559,3.211c-0.054,0.317-0.13,0.642-0.11,0.958c0.071,1.19-0.222,2.334-0.394,3.493
			c-0.124,0.837-0.359,1.667-0.393,2.506c-0.032,0.781,0.135,1.571,0.221,2.355c0.121,1.105,0.25,2.209,0.371,3.313
			c0.102,0.928,0.166,1.862,0.302,2.785c0.155,1.046,0.331,2.092,0.574,3.121c0.277,1.174,0.42,2.41,1.345,3.338
			c0.495,0.496,0.933,1.047,1.403,1.567c0.063,0.07,0.166,0.14,0.254,0.145c0.357,0.021,0.542,0.362,0.774,0.46
			c0.651,0.275,1.059,0.971,1.912,0.945c0.564-0.017,1.142,0.322,1.708,0.518c0.376,0.131,0.741,0.292,1.113,0.438
			c0.149,0.058,0.411,0.077,0.438,0.167c0.202,0.706,0.963,0.688,1.36,1.095c0.647,0.662,1.447,1.344,1.711,2.169
			c0.316,0.985,0.919,1.849,1.088,2.894c0.152,0.937,0.51,1.84,0.369,2.817c-0.01,0.071,0.079,0.157,0.12,0.237
			c0.114,0.226,0.383,0.533,0.314,0.664c-0.43,0.816,0.078,1.531,0.148,2.29c0.02,0.212-0.143,0.44-0.258,0.763
			c0.22,0.4,0.483,0.899,0.32,1.602c-0.156,0.666-0.067,1.379-0.206,2.086c-0.078,0.396,0.344,0.959,0.249,1.52
			c-0.153,0.908-0.306,1.818-0.402,2.733c-0.077,0.731-0.065,1.473-0.098,2.21c-0.022,0.512-0.014,1.027-0.091,1.531
			c-0.063,0.407-0.314,0.793-0.337,1.197c-0.04,0.699,0.057,1.404,0.049,2.107c-0.003,0.28-0.094,0.576-0.209,0.837
			c-0.537,1.221-0.538,2.56-0.874,3.819c-0.182,0.684-0.385,1.379-0.663,2.053c-0.247,0.6-0.466,1.297-0.68,1.955
			c-0.166,0.51-0.403,0.998-0.618,1.492c-0.032,0.074-0.126,0.122-0.182,0.191c-0.172,0.21-0.455,0.408-0.487,0.64
			c-0.125,0.905-0.765,1.47-1.286,2.114c-0.072,0.09-0.191,0.145-0.293,0.203c-0.299,0.175-0.725,0.271-0.879,0.529
			c-0.48,0.809-1.487,0.758-2.066,1.373c-0.037,0.04-0.188-0.049-0.282-0.037c-0.607,0.08-1.212,0.169-1.819,0.257
			c-0.012,0.002-0.019,0.035-0.029,0.053c-0.935-0.72-1.754,0.487-2.739,0.131c-0.868-0.313-1.912-0.154-2.762-0.493
			c-0.961-0.385-1.896-0.943-2.457-1.942c-0.373-0.667-0.82-1.276-0.364-1.979c0.989-0.223,1.693,0.274,2.299,1.016
			c0.043-0.054,0.086-0.108,0.129-0.163c-0.023-0.251-0.045-0.503-0.07-0.778c0.062-0.045,0.175-0.101,0.25-0.188
			c0.522-0.615,0.658-0.62,1.19-0.056c0.098,0.104,0.265,0.137,0.37,0.234c0.097,0.09,0.236,0.303,0.215,0.323
			c-0.271,0.275-0.134,0.433,0.14,0.546c0.467,0.194,0.925,0.452,1.414,0.545c1.25,0.238,2.433,0.123,3.445-0.803
			c0.523-0.477,1.136-0.855,1.707-1.282c0.113-0.085,0.244-0.167,0.316-0.28c0.427-0.664,0.848-1.334,1.245-2.017
			c0.062-0.105-0.01-0.289-0.024-0.482c0.855,0.029,0.771-0.745,1.029-1.206c0.371-0.662,0.655-1.375,0.943-2.08
			c0.127-0.311,0.162-0.658,0.26-0.982c0.204-0.676,0.478-1.336,0.617-2.023c0.125-0.611,0.081-1.257,0.157-1.881
			c0.059-0.485,0.232-0.959,0.274-1.445c0.085-0.973,0.114-1.949,0.169-2.924c0.024-0.417,0.022-0.839,0.089-1.25
			c0.22-1.376,0.396-2.744,0.25-4.15c-0.077-0.74,0.182-1.523,0.061-2.25c-0.158-0.949-0.533-1.865-0.832-2.79
			c-0.093-0.284-0.288-0.536-0.363-0.823c-0.248-0.951-1.019-1.507-1.598-2.213c-0.447-0.546-0.795-1.175-1.256-1.706
			c-0.335-0.388-0.782-0.678-1.184-1.005c-0.312-0.255-0.607-0.542-0.952-0.742c-1.123-0.652-2.249-1.303-3.405-1.896
			c-0.993-0.509-1.72-1.277-2.353-2.161c-0.361-0.504-0.721-1.01-1.064-1.525c-0.123-0.184-0.268-0.394-0.28-0.599
			c-0.044-0.714-0.437-1.239-0.855-1.76c-0.421-0.525-0.631-1.092-0.672-1.796c-0.081-1.409-0.3-2.81-0.457-4.215
			c-0.019-0.163-0.001-0.329-0.006-0.494c-0.019-0.7,0.042-1.417-0.089-2.097c-0.089-0.463-0.182-0.9-0.185-1.382
			c-0.003-0.669-0.16-1.335-0.224-2.006c-0.061-0.627-0.066-1.261-0.131-1.888c-0.097-0.949-0.328-1.896-0.308-2.84
			c0.018-0.819-0.43-1.63,0.011-2.469c0.145-0.277-0.004-0.694,0.047-1.038c0.143-0.974,0.324-1.943,0.485-2.915
			c0.214-1.29,0.465-2.576,0.617-3.873c0.071-0.606,0.422-1.015,0.686-1.503c0.396-0.731,0.723-1.5,1.071-2.257
			c0.382-0.83,0.753-1.664,1.131-2.496c0.016-0.036,0.045-0.067,0.073-0.097c1.229-1.312,2.455-2.628,3.698-3.927
			c0.122-0.127,0.36-0.183,0.55-0.198c0.691-0.055,1.223-0.555,1.89-0.65c0.281-0.04,0.617-0.083,0.852,0.031
			c0.623,0.304,1.242,0.293,1.901,0.215c0.436-0.052,0.854-0.039,1.247,0.327c0.266,0.248,0.737,0.271,1.112,0.405
			c1.458,0.519,3.015,0.902,3.929,2.297c0.147,0.224-0.119,0.745-0.26,1.104c-0.024,0.061-0.389,0.024-0.58-0.027
			C63.363,10.082,63.132,9.955,62.729,9.783z M52.303,46.034c-0.055-0.102-0.144-0.199-0.159-0.306
			c-0.061-0.44-0.298-0.576-0.707-0.496c-0.058,0.791,0.127,0.949,0.881,0.787c-0.301,0.504,0.136,0.737,0.415,0.944
			c0.715,0.529,1.223,1.352,2.171,1.56c0.08,0.017,0.132,0.132,0.21,0.181c0.498,0.318,0.976,0.684,1.508,0.933
			c0.657,0.308,1.317,0.583,1.783,1.171c0.138,0.174,0.262,0.361,0.415,0.521c0.707,0.739,1.519,1.381,2.052,2.282
			c0.077,0.129,0.306,0.17,0.528,0.287c-0.158-0.439-0.279-0.731-0.37-1.033c-0.237-0.781-0.343-1.631-0.719-2.336
			c-0.481-0.902-1.123-1.741-2.019-2.312c-0.287-0.184-0.609-0.309-0.915-0.461c-0.366-0.188-0.71-0.42-1.084-0.58
			c-0.7-0.301-1.401-0.62-2.133-0.82C53.561,46.191,52.989,45.748,52.303,46.034z"/>
		<path fill-rule="evenodd" clip-rule="evenodd" fill="#FFFFFF" d="M85.236,3.846c0.454-0.485,1.302-0.293,2.058-0.363
			c0.802-0.073,1.535,0.19,1.984,0.999c-0.283,0.655-0.618,1.394-1.528,1.594c-0.156,0.034-0.317,0.073-0.475,0.071
			c-0.533-0.01-1.019-0.049-1.506,0.361c-0.295,0.248-0.853,0.176-1.289,0.263c-0.675,0.133-1.278,0.482-2.052,0.306
			c-0.425-0.098-0.972,0.284-1.445,0.491c-0.1,0.044-0.156,0.27-0.169,0.417c-0.085,0.97-0.157,1.94-0.218,2.911
			c-0.007,0.101,0.117,0.206,0.126,0.313c0.028,0.324,0.047,0.651,0.039,0.977c-0.007,0.325-0.076,0.649-0.075,0.973
			c0.001,0.896,0.053,1.791-0.254,2.659c-0.079,0.223-0.111,0.472-0.113,0.709c-0.012,1.296,0.01,2.593-0.02,3.889
			c-0.009,0.375-0.183,0.743-0.228,1.12c-0.109,0.903-0.191,1.81-0.277,2.716c-0.042,0.447-0.062,0.896-0.101,1.343
			c-0.074,0.84-0.191,1.678-0.221,2.518c-0.02,0.573-0.047,1.201,0.153,1.716c0.32,0.821-0.152,1.529-0.119,2.29
			c0.032,0.715-0.208,1.397-0.1,2.142c0.12,0.817-0.034,1.674-0.067,2.514c-0.008,0.185-0.032,0.372-0.012,0.554
			c0.085,0.825-0.008,1.63-0.167,2.44c-0.047,0.241,0.146,0.521,0.156,0.785c0.034,0.938,0.043,1.877,0.046,2.816
			c0.001,0.681,0,1.363-0.044,2.042c-0.053,0.81-0.175,1.616-0.227,2.426c-0.025,0.381,0.093,0.771,0.063,1.15
			c-0.085,1.117-0.206,2.232-0.332,3.347c-0.021,0.192-0.16,0.369-0.193,0.563c-0.032,0.187,0.005,0.386,0.003,0.579
			c-0.002,0.15-0.01,0.301-0.031,0.448c-0.085,0.606-0.187,1.212-0.263,1.819c-0.095,0.763-0.176,1.527-0.253,2.293
			c-0.05,0.484-0.104,0.972-0.116,1.459c-0.047,1.928-0.272,3.831-0.653,5.725c-0.104,0.516,0.085,1.086,0.093,1.631
			c0.004,0.289-0.093,0.58-0.146,0.869c-0.093,0.516-0.223,1.027-0.269,1.546c-0.029,0.33,0.115,0.674,0.096,1.006
			c-0.057,0.993-0.145,1.985-0.248,2.974c-0.021,0.207-0.209,0.397-0.231,0.605c-0.067,0.628-0.064,1.264-0.136,1.893
			c-0.095,0.818-0.236,1.632-0.355,2.448c-0.041,0.284-0.099,0.567-0.115,0.853c-0.055,1.037-0.095,2.075-0.134,2.958
			c-0.458,0.42-0.846,0.789-1.25,1.142c-0.189,0.166-0.466,0.258-0.603,0.453c-0.626,0.896-0.381,1.862-0.102,2.789
			c0.107,0.357,0.019,0.53-0.167,0.809c-0.504,0.758-1.144,1.055-2.021,0.787c-0.784-0.239-1.057-0.834-0.753-1.61
			c0.209-0.535,0.157-0.755-0.104-0.968c0.153-0.645,0.334-1.201,0.409-1.773c0.163-1.242,0.271-2.492,0.4-3.738
			c0.117-1.132,0.253-2.262,0.343-3.395c0.073-0.918,0.057-1.844,0.14-2.761c0.118-1.286,0.306-2.565,0.436-3.851
			c0.083-0.834,0.156-1.672,0.164-2.508c0.007-0.838-0.12-1.677-0.096-2.512c0.021-0.766,0.168-1.525,0.256-2.289
			c0.078-0.684,0.155-1.369,0.22-2.055c0.167-1.779,0.317-3.56,0.491-5.338c0.137-1.395,0.283-2.789,0.456-4.18
			c0.154-1.241,0.422-2.473,0.513-3.717c0.126-1.715,0.544-3.387,0.655-5.103c0.041-0.636,0.269-1.26,0.327-1.897
			c0.042-0.457-0.087-0.927-0.085-1.391c0.003-0.466,0.124-0.934,0.103-1.397c-0.027-0.603,0.255-1.156,0.07-1.812
			c-0.151-0.534,0.091-1.179,0.159-1.774c0.009-0.082,0.026-0.163,0.03-0.245c0.083-1.629,0.142-3.259,0.258-4.886
			c0.07-0.983,0.267-1.958,0.337-2.942c0.06-0.849-0.048-1.712,0.043-2.556c0.104-0.975,0.358-1.933,0.521-2.902
			c0.152-0.905,0.279-1.814,0.405-2.723c0.118-0.854,0.247-1.707,0.321-2.564c0.067-0.769,0.066-1.543,0.098-2.315
			c0.011-0.271,0.028-0.541,0.052-0.81c0.01-0.119,0.071-0.238,0.063-0.354c-0.076-1.057-0.156-2.112-0.256-3.167
			c-0.01-0.111-0.155-0.298-0.236-0.298c-0.444,0.005-0.897,0.012-1.329,0.105c-0.55,0.12-1.088,0.308-1.62,0.496
			c-0.219,0.079-0.403,0.249-0.613,0.357c-0.568,0.292-1.182,0.516-1.703,0.875c-0.836,0.576-1.962,0.643-2.598,1.586
			c-0.287,0.426-1.082,0.273-1.689-0.21c-0.45-0.358-0.562-0.976-0.244-1.518c0.268-0.458,0.574-0.844,0.454-1.477
			c-0.057-0.302,0.323-0.749,0.601-1.04c0.413-0.432,0.958-0.432,1.556-0.402c0.891,0.044,1.792,0.062,2.669-0.342
			c0.474-0.219,1.096-0.091,1.628-0.216c0.672-0.159,1.327-0.401,1.977-0.64c0.262-0.097,0.487-0.29,0.739-0.422
			c0.302-0.158,0.636-0.451,0.918-0.411c0.543,0.075,0.934-0.256,1.403-0.326c0.986-0.148,1.98-0.246,2.964-0.404
			c0.471-0.075,0.921-0.279,1.392-0.349C84.328,3.764,84.704,3.829,85.236,3.846z"/>
		<path fill-rule="evenodd" clip-rule="evenodd" fill="#FFFFFF" d="M95.221,47.963c-0.831,0.115-1.595,0.236-2.362,0.322
			c-0.588,0.066-1.181,0.107-1.771,0.125c-0.432,0.014-0.841,0.012-0.841,0.617c-0.777-0.446-1.144-0.336-1.283,0.418
			c-0.143,0.775-0.153,1.574-0.255,2.357c-0.103,0.782-0.263,1.557-0.372,2.339c-0.099,0.708-0.159,1.42-0.24,2.13
			c-0.065,0.566-0.137,1.132-0.207,1.697c-0.007,0.06-0.054,0.139-0.029,0.175c0.669,0.985-0.172,2.048,0.177,3.098
			c0.215,0.648-0.065,1.448-0.047,2.179c0.015,0.596,0.153,1.187,0.214,1.782c0.015,0.149-0.079,0.307-0.09,0.464
			c-0.039,0.514-0.296,0.963-0.068,1.56c0.215,0.56,0.014,1.267,0.061,1.905c0.063,0.874,0.175,1.744,0.29,2.614
			c0.083,0.626,0.209,1.242-0.187,1.819c-0.073,0.107-0.124,0.277-0.099,0.399c0.138,0.655,0.485,1.327,0.414,1.954
			c-0.093,0.822,0.19,1.545,0.359,2.269c0.21,0.907,0.101,1.981,1.08,2.647c0.388,0.265,0.615,0.816,0.824,1.278
			c0.305,0.677,0.825,0.987,1.504,1.165c0.406,0.107,0.78,0.33,1.177,0.479c0.898,0.338,1.787,0.227,2.723,0.089
			c0.45-0.066,0.936-0.367,1.538-0.068c0.345,0.172,1.025-0.281,1.533-0.504c0.347-0.152,0.655-0.393,1.051-0.635
			c0.195,0.111,0.54,0.306,0.882,0.504c0.411,0.239,0.249,0.57,0.164,0.908c-0.061,0.238-0.083,0.496-0.062,0.74
			c0.029,0.339-0.549,0.885-1.008,0.95c-0.784,0.11-1.567,0.23-2.343,0.378c-0.206,0.04-0.439,0.152-0.574,0.307
			c-0.788,0.895-1.778,0.739-2.773,0.57c-0.74-0.125-1.478-0.26-2.215-0.396c-0.158-0.029-0.324-0.058-0.462-0.132
			c-0.817-0.44-1.628-0.894-2.438-1.345c-0.085-0.048-0.168-0.107-0.238-0.178c-0.284-0.286-0.562-0.578-0.923-0.767
			c-0.218-0.428-0.397-0.882-0.663-1.276c-0.434-0.645-0.716-1.391-1.424-1.859c-0.257-0.17-0.385-0.662-0.415-1.021
			c-0.115-1.377-0.32-2.723-0.724-4.053c-0.202-0.665-0.157-1.408-0.209-2.115c-0.065-0.893-0.146-1.785-0.165-2.68
			c-0.023-1.025,0.028-2.053,0.017-3.078c-0.004-0.415-0.106-0.828-0.129-1.244c-0.019-0.341,0.042-0.686,0.018-1.024
			c-0.037-0.486-0.119-0.97-0.182-1.444c0.057-0.393,0.129-0.807,0.175-1.225c0.131-1.196,0.251-2.394,0.375-3.592
			c0.087-0.842,0.218-1.681,0.251-2.523c0.043-1.113-0.072-2.237,0.032-3.342c0.118-1.248,0.405-2.48,0.613-3.721
			c0.044-0.266,0.076-0.537,0.094-0.806c0.09-1.322,0.182-2.644,0.258-3.966c0.091-1.575,0.134-3.153,0.267-4.725
			c0.057-0.675,0.265-1.34,0.446-1.999c0.342-1.24,0.137-2.49,0.116-3.737c-0.001-0.095-0.088-0.194-0.078-0.285
			c0.071-0.663,0.115-1.334,0.249-1.986c0.21-1.029,0.505-2.04,0.725-3.067c0.233-1.094,0.421-2.197,0.628-3.296
			c0.164-0.875,0.293-1.757,0.501-2.62c0.13-0.537,0.407-1.035,0.569-1.565c0.399-1.309,0.766-2.628,1.156-3.94
			c0.05-0.167,0.189-0.308,0.235-0.476c0.061-0.22,0.033-0.467,0.108-0.681c0.124-0.353,0.264-0.71,0.463-1.025
			c0.15-0.237,0.342-0.368,0.225-0.739c-0.072-0.233,0.26-0.566,0.315-0.872c0.114-0.639,0.337-1.216,0.692-1.76
			c0.488-0.748,0.869-1.577,1.423-2.269c0.464-0.579,0.992-1.176,1.805-1.335c0.052-0.01,0.107-0.07,0.136-0.121
			c0.725-1.269,2.239-1.174,3.277-1.899c0.351-0.246,0.694-0.516,1.076-0.702c0.324-0.158,0.836-0.402,1.028-0.269
			c0.505,0.353,0.953-0.102,1.403,0.062c0.169,0.061,0.354,0.089,0.509,0.173c0.141,0.076,0.234,0.239,0.376,0.305
			c0.449,0.209,0.746,0.799,0.505,1.223c-0.227,0.396-0.467,0.9-1.079,0.769c-0.826-0.177-1.601,0.197-2.167,0.583
			c-0.845,0.576-1.465,1.485-2.171,2.262c-0.193,0.212-0.351,0.457-0.528,0.686c-1.028,1.325-2.07,2.642-3.077,3.984
			c-0.188,0.25-0.237,0.604-0.356,0.909c-0.093,0.239-0.161,0.497-0.3,0.707c-0.255,0.383-0.737,0.666-0.453,1.251
			c0.031,0.063-0.036,0.193-0.087,0.274c-0.338,0.543-0.621,1.139-1.042,1.609c-0.613,0.685-0.657,1.524-0.862,2.336
			c-0.123,0.485-0.402,0.928-0.58,1.402c-0.152,0.404-0.302,0.817-0.376,1.24c-0.191,1.091-0.35,2.187-0.5,3.284
			c-0.139,1.02-0.246,2.044-0.376,3.065c-0.068,0.54-0.178,1.076-0.231,1.618c-0.101,1.013-0.156,2.031-0.266,3.043
			c-0.141,1.292-0.323,2.579-0.474,3.871c-0.034,0.284,0.021,0.581-0.025,0.862c-0.045,0.284-0.168,0.555-0.249,0.833
			c-0.042,0.15-0.109,0.312-0.091,0.458c0.055,0.425,0.183,0.844,0.214,1.27c0.027,0.378,0.226,0.462,0.528,0.416
			c1.257-0.197,2.55-0.284,3.754-0.656c0.749-0.231,1.442-0.277,2.167-0.186c0.377,0.047,0.774,0.21,1.085,0.43
			c0.314,0.224,0.223,1.34-0.107,1.574c-0.271,0.193-0.61,0.289-0.901,0.459c-0.135,0.078-0.342,0.298-0.317,0.34
			C95.916,46.964,95.255,47.426,95.221,47.963z"/>
		<path fill-rule="evenodd" clip-rule="evenodd" fill="#FFFFFF" d="M31.804,51.581c0.09,0.776,0.197,1.458,0.24,2.146
			c0.031,0.486-0.07,0.983-0.034,1.469c0.096,1.275,0.237,2.546,0.355,3.818c0.047,0.509,0.109,1.019,0.112,1.527
			c0.001,0.284-0.128,0.566-0.156,0.854c-0.017,0.19-0.011,0.417,0.076,0.576c0.241,0.44,0.356,0.846,0.031,1.303
			c-0.081,0.113-0.116,0.379-0.042,0.465c0.5,0.584,0.207,1.242,0.239,1.874c0.041,0.796,0.266,1.593,0.225,2.38
			c-0.032,0.611,0.53,1.299-0.176,1.883c-0.102,0.084,0.086,0.512,0.132,0.782c0.143,0.825,0.318,1.647,0.402,2.479
			c0.028,0.28-0.181,0.585-0.164,0.94c0.118-0.139,0.236-0.276,0.29-0.339c0.206,0.699,0.437,1.431,0.628,2.173
			c0.049,0.186-0.023,0.404-0.049,0.726c0.354,0.189,0.516,0.563,0.021,1.081c0.413,0.21,0.44,0.491,0.453,0.95
			c0.044,1.526,0.434,2.959,1.853,3.88c0.722,0.468,1.341,1.109,2.247,1.239c0.174,0.024,0.376,0.103,0.52,0.044
			c0.749-0.306,1.613-0.336,2.244-0.945c0.074-0.072,0.365,0.039,0.525,0.123c0.047,0.025-0.02,0.252-0.023,0.387
			c-0.008,0.34-0.03,0.684-0.006,1.021c0.015,0.219,0.137,0.43,0.15,0.648c0.021,0.355,0.036,0.725-0.036,1.069
			c-0.036,0.177-0.238,0.36-0.412,0.456c-0.511,0.281-0.946,0.947-1.669,0.293c-0.167-0.15-0.581-0.002-0.875-0.039
			c-0.349-0.045-0.689-0.165-1.04-0.205c-0.141-0.017-0.296,0.089-0.498,0.156c-0.051-0.567-0.487-0.291-0.842-0.381
			c-0.655-0.166-1.26-0.564-1.855-0.918c-0.489-0.289-0.935-0.655-1.4-0.984c-0.065-0.047-0.178-0.065-0.203-0.124
			c-0.357-0.847-1.222-1.288-1.657-2.05c-0.246-0.433-0.276-0.988-0.403-1.488c-0.044-0.176-0.043-0.38-0.137-0.521
			c-0.508-0.771-0.455-1.67-0.606-2.521c-0.166-0.932-0.349-1.861-0.477-2.799c-0.141-1.043-0.21-2.098-0.342-3.143
			c-0.133-1.051-0.31-2.096-0.458-3.146c-0.045-0.321-0.077-0.647-0.08-0.972c-0.009-1.207,0.027-2.414-0.013-3.619
			c-0.032-0.953-0.161-1.902-0.225-2.855c-0.06-0.877-0.131-1.758-0.126-2.636c0.006-1.381,0.097-2.762,0.104-4.143
			c0.005-0.918-0.109-1.837-0.106-2.755c0.003-0.914,0.103-1.827,0.128-2.74c0.034-1.18,0.04-2.36,0.05-3.54
			c0.002-0.228-0.051-0.456-0.035-0.681c0.067-0.962,0.125-1.925,0.237-2.882c0.09-0.778,0.26-1.548,0.384-2.322
			c0.083-0.518,0.203-1.037,0.205-1.556c0.002-1.002-0.134-2.008-0.087-3.006c0.042-0.881,0.272-1.752,0.383-2.633
			c0.041-0.328-0.044-0.67-0.033-1.004c0.028-0.857,0.112-1.714,0.11-2.571c-0.002-1.026-0.151-2.057-0.089-3.077
			c0.08-1.309,0.301-2.609,0.471-3.913c0.113-0.859,0.224-1.72,0.374-2.573c0.128-0.728,0.307-1.447,0.471-2.167
			c0.208-0.917,0.42-1.834,0.64-2.749c0.031-0.13,0.106-0.252,0.167-0.375c0.363-0.725,0.687-1.473,1.106-2.164
			c0.264-0.434,0.659-0.791,1.016-1.162c0.462-0.481,0.921-0.971,1.428-1.403c0.521-0.444,1.069-0.873,1.661-1.212
			c0.372-0.214,0.903-0.162,1.262-0.388c0.8-0.506,1.668-0.698,2.575-0.88c0.63-0.126,0.863,0.336,1.114,0.612
			c0.595,0.653,0.292,1.526-0.429,2.029c-0.525,0.367-1.023-0.023-1.51,0.151c-0.104,0.037-0.277-0.041-0.342,0.018
			c-0.513,0.473-0.997,0.978-1.515,1.446c-0.212,0.192-0.518,0.281-0.722,0.48c-0.674,0.658-1.354,1.314-1.962,2.03
			c-0.33,0.388-0.523,0.892-0.764,1.351c-0.176,0.336-0.4,0.667-0.484,1.029c-0.282,1.213-0.882,2.337-0.903,3.631
			c-0.01,0.59-0.489,1.198-0.42,1.757c0.087,0.703-0.145,1.299-0.228,1.943c-0.032,0.247,0.1,0.521,0.046,0.758
			c-0.207,0.916,0.143,1.806,0.076,2.708c-0.027,0.365-0.161,0.721-0.231,1.084c-0.042,0.217-0.072,0.438-0.079,0.659
			c-0.045,1.733-0.106,3.467-0.119,5.201c-0.009,1.196,0.078,2.393,0.073,3.589c-0.004,0.883-0.087,1.767-0.134,2.651
			c-0.024,0.452,0.098,0.99-0.105,1.337c-0.277,0.474-0.13,0.947-0.233,1.407c-0.085,0.379-0.021,0.891,0.186,1.206
			c0.181,0.274,0.65,0.364,0.998,0.521c1.259,0.572,2.559,0.08,3.831,0.062c0.425-0.006,0.789-0.27,1.146,0.167
			c0.263,0.324,0.604,0.589,0.84,0.93c0.218,0.313-0.398,1.668-0.779,1.792c-0.797,0.26-1.589,0.253-2.438,0.202
			c-1.157-0.07-2.394-0.268-3.493,0.416c-0.364,0.227-0.564,0.863-0.371,1.225c0.055,0.102,0.079,0.301,0.019,0.367
			c-0.328,0.364-0.378,0.696-0.041,1.094C32.252,50.901,32.069,51.453,31.804,51.581z"/>
	</g>
</g>
</svg>
