<?xml version="1.0" encoding="utf-8"?>
<!-- Generator: Adobe Illustrator 16.0.4, SVG Export Plug-In . SVG Version: 6.00 Build 0)  -->
<!DOCTYPE svg PUBLIC "-//W3C//DTD SVG 1.1//EN" "http://www.w3.org/Graphics/SVG/1.1/DTD/svg11.dtd">
<svg version="1.1" id="Layer_1" xmlns="http://www.w3.org/2000/svg" xmlns:xlink="http://www.w3.org/1999/xlink" x="0px" y="0px"
	 width="30px" height="40px" viewBox="0 0 30 40" enable-background="new 0 0 30 40" xml:space="preserve">
<g>
	<path fill="#FEC159" d="M0,40V0h12.546c2.633,0,4.731,0.208,6.293,0.623c1.581,0.415,2.914,1.115,4.001,2.099
		c1.104,1.019,1.979,2.289,2.625,3.808c0.662,1.536,0.994,3.09,0.994,4.662c0,2.866-1.08,5.296-3.236,7.28
		c2.09,0.726,3.737,1.995,4.941,3.809C29.388,24.076,30,26.166,30,28.549c0,3.127-1.086,5.768-3.261,7.928
		c-1.31,1.33-2.779,2.252-4.409,2.771C20.548,39.751,18.313,40,15.63,40H0z"/>
</g>
</svg>
